<svg id="Layer_1" data-name="Layer 1" xmlns="http://www.w3.org/2000/svg" viewBox="0 0 54 25"><defs><style>.cls-1{fill:#afadad;}.cls-2{fill:#8c8c8c;}</style></defs><path class="cls-1" d="M40.43,9.81V5.2a1,1,0,0,0-1.93,0v6.49A9.3,9.3,0,0,1,40.43,9.81Z"/><path class="cls-1" d="M16,.45a3.74,3.74,0,0,0-3.75,3.74V9.73h2V4.19a1.8,1.8,0,0,1,3.6,0V9.87A5.54,5.54,0,0,1,19.78,11V4.19A3.74,3.74,0,0,0,16,.45Z"/><path class="cls-1" d="M6.58,20.81a1.8,1.8,0,1,1-3.6,0V15.13A5.54,5.54,0,0,1,1,14v6.8a3.74,3.74,0,1,0,7.48,0V15.27H6.58Z"/><path class="cls-2" d="M16,11.53H4.78A1.81,1.81,0,0,1,3,9.73L3,4.19a1.8,1.8,0,1,1,3.6,0V9.73H8.54V4.19a3.74,3.74,0,1,0-7.48,0L1,9.73a3.75,3.75,0,0,0,3.74,3.74H16a1.81,1.81,0,0,1,1.8,1.8l0,5.54a1.8,1.8,0,0,1-3.6,0V15.27H12.28v5.54a3.74,3.74,0,0,0,7.48,0l0-5.54A3.75,3.75,0,0,0,16,11.53Z"/><path class="cls-1" d="M35.62,9.75a1,1,0,0,0-1,1v6.41a5.49,5.49,0,1,1-11,0V10.71a1,1,0,0,0-1.93,0v6.41a7.42,7.42,0,0,0,14.84,0V10.71A1,1,0,0,0,35.62,9.75Z"/><path class="cls-1" d="M45.8,10A7.24,7.24,0,1,0,53,17.23,7.22,7.22,0,0,0,45.8,10Zm0,12.62a5.39,5.39,0,0,1-5.37-5.14V17a5.38,5.38,0,1,1,5.37,5.62Z"/></svg>