<?xml version="1.0" encoding="utf-8"?>
<!-- Generator: Adobe Illustrator 23.1.0, SVG Export Plug-In . SVG Version: 6.00 Build 0)  -->
<svg version="1.1" id="Layer_1" xmlns="http://www.w3.org/2000/svg" xmlns:xlink="http://www.w3.org/1999/xlink" x="0px" y="0px"
	 width="90px" height="40px" viewBox="0 0 90 40" style="enable-background:new 0 0 90 40;" xml:space="preserve">
<style type="text/css">
	.st0{fill:#666666;}
</style>
<title>logo</title>
<g>
	<path id="Path_123" class="st0" d="M63.4,18.2v-2.1h-2v-2.8l-2.8,0.8v2h-1.7v2.1h1.7v4.6c0,3.6,4.9,2.3,4.9,2.3v-2
		c-2,0.6-2-1.1-2-1.1v-3.8L63.4,18.2z"/>
	<path id="Path_124" class="st0" d="M56.1,13.4v2.5c-1-0.6-2.2-0.9-3.4-0.6c-2.1,0.3-1.5,1.9-0.2,2.2c1.3,0.4,4.2,0.9,4.2,4.4
		s-4.8,3.6-8.2,2.9l0.2-2.7c0,0,4.6,1.8,5.1-0.3c0.6-2.4-5.8-0.5-5.5-5.5C48.6,11.5,56.1,13.4,56.1,13.4z"/>
	<path id="Path_125" class="st0" d="M68.4,15.9c-2.7,0-4.9,1.4-4.9,4.7s2.2,4.7,4.9,4.7s4.9-1.7,4.9-4.7S71.1,15.9,68.4,15.9z
		 M68.3,23.1c-1.3,0-1.8-1.1-1.8-2.5c0-1.4,0.4-2.6,1.8-2.6s1.8,1.1,1.8,2.6C70.1,22,69.7,23.1,68.3,23.1z"/>
	<path id="Path_126" class="st0" d="M76.5,17.4v-1.3h-2.8V25h2.8v-4.8c0.7-2.3,3.2-1.6,3.2-1.6V16C78.5,15.6,77.1,16.2,76.5,17.4z"
		/>
	<path id="Path_127" class="st0" d="M83.2,16.2h-3.2l3.6,8.9c0,0-0.5,1.9-2.7,1.2l-0.2,2.3c0,0,3.6,1.1,4.8-1.4s4.2-11,4.2-11h-2.9
		l-1.7,5.6L83.2,16.2z"/>
	<path id="Path_128" class="st0" d="M6.6,18H3.4v-4H0.5v10.7h2.9v-4.5h3.3v4.5h2.9V14H6.6V18z"/>
	<path id="Path_129" class="st0" d="M20.3,15.4c-0.5-0.5-1.2-0.9-1.9-1.2c-1.5-0.6-3.2-0.6-4.8,0c-0.7,0.3-1.3,0.7-1.8,1.2
		c-0.5,0.5-0.9,1.1-1.1,1.8c-0.3,0.7-0.4,1.5-0.4,2.2c0,0.7,0.1,1.5,0.4,2.2c0.5,1.4,1.6,2.5,3,3c1.5,0.6,3.2,0.6,4.8,0
		c1.4-0.5,2.5-1.6,3-3c0.3-0.7,0.4-1.4,0.4-2.2c0-0.8-0.1-1.5-0.4-2.2C21.2,16.6,20.8,16,20.3,15.4z M16,22.7
		c-0.5,0-0.9-0.1-1.3-0.3c-0.4-0.2-0.7-0.4-0.9-0.7c-0.2-0.3-0.4-0.7-0.5-1.1c-0.1-0.4-0.2-0.8-0.2-1.3c0-0.4,0.1-0.9,0.2-1.3
		c0.1-0.4,0.3-0.7,0.5-1.1c0.2-0.3,0.5-0.6,0.9-0.7c0.8-0.4,1.8-0.4,2.7,0c0.3,0.2,0.7,0.4,0.9,0.7c0.2,0.3,0.4,0.7,0.5,1.1
		c0.1,0.4,0.2,0.8,0.2,1.3c0,0.4-0.1,0.9-0.2,1.3c-0.1,0.4-0.3,0.7-0.5,1c-0.2,0.3-0.5,0.6-0.9,0.7C17,22.7,16.5,22.8,16,22.7z"/>
	<path id="Path_130" class="st0" d="M22.3,16.3h2.4v8.4h2.9v-8.4H30V14h-7.8V16.3z"/>
	<path id="Path_131" class="st0" d="M33.8,20.3h4.6v-2.2h-4.6v-1.8h5.1V14H31v10.7h8v-2.3h-5.2V20.3z"/>
	<path id="Path_132" class="st0" d="M42.8,22.5v-8.4h-2.9v10.7h7.5v-2.3H42.8z"/>
</g>
</svg>
