<?xml version="1.0" encoding="utf-8"?>
<!-- Generator: Adobe Illustrator 23.1.0, SVG Export Plug-In . SVG Version: 6.00 Build 0)  -->
<svg version="1.1" id="Layer_1" xmlns="http://www.w3.org/2000/svg" xmlns:xlink="http://www.w3.org/1999/xlink" x="0px" y="0px"
	 width="140px" height="70px" viewBox="0 0 140 70" style="enable-background:new 0 0 140 70;" xml:space="preserve">
<style type="text/css">
	.st0{fill:#444545;}
	.st1{fill:#AB8D69;}
</style>
<title>logo</title>
<path id="Path_123" class="st0" d="M98.7,30.7v-3.2h-3.2v-4.4l-4.4,1.3v3.1h-2.7v3.2h2.7v7.1c0,5.6,7.6,3.6,7.6,3.6v-3.1
	c-3.1,0.9-3.1-1.7-3.1-1.7v-6L98.7,30.7z"/>
<path id="Path_124" class="st0" d="M87.4,23.3v3.9c-1.6-1-3.4-1.3-5.3-1c-3.3,0.5-2.4,2.9-0.4,3.5s6.5,1.4,6.5,6.8
	s-7.4,5.6-12.8,4.5l0.3-4.2c0,0,7.1,2.7,7.9-0.4c0.9-3.7-9-0.8-8.5-8.6C75.6,20.3,87.4,23.3,87.4,23.3z"/>
<path id="Path_125" class="st0" d="M106.5,27.3c-4.2,0-7.6,2.2-7.6,7.3s3.4,7.3,7.6,7.3s7.6-2.6,7.6-7.3S110.7,27.3,106.5,27.3z
	 M106.4,38.5c-2,0-2.8-1.8-2.8-3.9s0.6-4,2.8-4s2.8,1.8,2.8,4S108.6,38.5,106.4,38.5z"/>
<path id="Path_126" class="st0" d="M119.3,29.6v-2h-4.4v13.8h4.4v-7.5c1.2-3.6,5-2.5,5-2.5v-4.1C122.3,26.8,120.2,27.7,119.3,29.6z"
	/>
<path id="Path_127" class="st0" d="M129.6,27.6h-5.1l5.5,13.9c0,0-0.8,3-4.2,1.8l-0.4,3.6c0,0,5.6,1.7,7.4-2.1s6.6-17.1,6.6-17.1
	h-4.6l-2.7,8.7L129.6,27.6z"/>
<path id="Path_128" class="st1" d="M10.1,30.5H5v-6.2H0.5v16.8H5v-7h5.1v7h4.5V24.3h-4.5V30.5z"/>
<path id="Path_129" class="st1" d="M31.4,26.5c-0.8-0.8-1.8-1.5-2.9-1.9c-2.4-0.9-5.1-0.9-7.5,0c-1.1,0.4-2,1.1-2.9,1.9
	c-0.8,0.8-1.4,1.8-1.8,2.8c-0.4,1.1-0.6,2.3-0.6,3.5c0,1.2,0.2,2.3,0.6,3.4c0.8,2.1,2.5,3.8,4.6,4.6c2.4,0.9,5.1,0.9,7.5,0
	c2.1-0.8,3.8-2.5,4.7-4.6c0.4-1.1,0.6-2.2,0.6-3.4c0-1.2-0.2-2.3-0.6-3.5C32.8,28.3,32.2,27.3,31.4,26.5z M24.8,37.9
	c-0.7,0-1.4-0.1-2-0.4c-0.5-0.3-1-0.6-1.4-1.1c-0.4-0.5-0.6-1-0.8-1.6c-0.2-0.6-0.3-1.3-0.3-2c0-0.7,0.1-1.3,0.3-2
	c0.2-0.6,0.4-1.2,0.8-1.7c0.4-0.5,0.8-0.9,1.4-1.1c1.3-0.6,2.8-0.6,4.1,0c0.5,0.3,1,0.6,1.4,1.1c0.4,0.5,0.6,1.1,0.8,1.7
	c0.2,0.7,0.3,1.3,0.3,2c0,0.7-0.1,1.3-0.3,2c-0.2,0.6-0.4,1.1-0.8,1.6c-0.4,0.5-0.8,0.9-1.4,1.1C26.2,37.8,25.5,37.9,24.8,37.9z"/>
<path id="Path_130" class="st1" d="M34.5,27.9h3.8v13.2h4.5V27.9h3.8v-3.6H34.5V27.9z"/>
<path id="Path_131" class="st1" d="M52.6,34.1h7.1v-3.4h-7.1v-2.9h7.9v-3.6H48.1v16.8h12.6v-3.6h-8.1V34.1z"/>
<path id="Path_132" class="st1" d="M66.6,37.5V24.3h-4.5v16.8h11.7v-3.6H66.6z"/>
</svg>
