<svg version="1.2" xmlns="http://www.w3.org/2000/svg" viewBox="0 0 140 70" width="140" height="70">
	<style>
		.s0 { opacity: 1;fill: #e9a821 } 
		.s1 { fill: #000000 } 
		.s2 { opacity: 1;fill: #ffffff } 
	</style>
	<g id="폴더 1">
		<g id="레이어 1">
			<path id="Path 0" class="s0" d="m21.96 18.02c0.16 0.01 0.42 0.01 0.58 0 0.17-0.01 0.04-0.02-0.28-0.02-0.31 0-0.45 0.01-0.3 0.02z"/>
			<path id="Path 1" class="s1" d="m20.85 18.08c-0.25 0.02-0.7 0.07-0.99 0.11-0.29 0.04-0.78 0.13-1.08 0.19-0.31 0.06-0.85 0.19-1.22 0.3-0.36 0.1-0.93 0.28-1.27 0.41-0.33 0.12-0.87 0.34-1.18 0.48-0.32 0.15-0.76 0.36-0.97 0.48-0.22 0.12-0.64 0.36-0.93 0.53-0.29 0.18-0.72 0.46-0.94 0.63-0.23 0.17-0.57 0.41-0.74 0.55-0.18 0.14-0.49 0.41-0.7 0.59-0.2 0.18-0.48 0.44-0.62 0.58-0.14 0.14-0.44 0.44-0.67 0.69-0.22 0.24-0.52 0.58-0.67 0.76-0.14 0.18-0.43 0.55-0.63 0.83-0.2 0.28-0.51 0.75-0.69 1.04-0.18 0.29-0.45 0.77-0.61 1.06-0.15 0.29-0.4 0.82-0.55 1.18-0.15 0.35-0.36 0.89-0.47 1.2-0.11 0.3-0.28 0.87-0.38 1.26-0.1 0.38-0.23 1-0.29 1.36-0.06 0.36-0.14 0.85-0.16 1.1-0.03 0.24-0.07 0.88-0.08 1.43-0.02 0.6-0.01 1.27 0.03 1.71 0.03 0.39 0.08 0.92 0.12 1.17 0.03 0.26 0.12 0.72 0.18 1.04 0.06 0.32 0.19 0.84 0.28 1.17 0.08 0.32 0.25 0.85 0.37 1.18 0.12 0.32 0.35 0.89 0.51 1.25 0.16 0.37 0.48 1.01 0.71 1.41 0.24 0.41 0.53 0.9 0.66 1.09 0.12 0.19 0.4 0.57 0.61 0.85 0.21 0.28 0.55 0.71 0.77 0.95 0.21 0.24 0.57 0.61 0.78 0.83 0.22 0.22 0.57 0.55 0.78 0.74 0.22 0.19 0.54 0.47 0.72 0.6 0.17 0.14 0.51 0.39 0.74 0.56 0.22 0.16 0.65 0.45 0.94 0.62 0.29 0.18 0.71 0.42 0.93 0.54 0.21 0.12 0.65 0.33 0.97 0.47 0.31 0.15 0.85 0.37 1.18 0.49 0.34 0.13 0.9 0.31 1.25 0.41 0.35 0.1 0.91 0.23 1.24 0.3 0.33 0.07 0.93 0.17 1.34 0.22 0.62 0.09 0.96 0.1 2.14 0.1 1.19 0 1.53-0.01 2.15-0.1 0.41-0.05 1.01-0.15 1.34-0.22 0.33-0.07 0.89-0.2 1.23-0.3 0.35-0.1 0.92-0.28 1.25-0.41 0.34-0.12 0.87-0.34 1.19-0.49 0.32-0.14 0.75-0.35 0.97-0.47 0.22-0.12 0.63-0.36 0.92-0.54 0.3-0.17 0.72-0.46 0.95-0.62 0.23-0.17 0.56-0.42 0.74-0.56 0.18-0.13 0.49-0.4 0.69-0.58 0.21-0.18 0.49-0.45 0.63-0.58 0.14-0.14 0.44-0.45 0.66-0.69 0.23-0.24 0.53-0.58 0.67-0.76 0.15-0.18 0.43-0.55 0.64-0.83 0.2-0.28 0.52-0.77 0.71-1.09 0.19-0.31 0.47-0.79 0.61-1.06 0.14-0.27 0.38-0.77 0.53-1.13 0.15-0.36 0.36-0.9 0.47-1.2 0.1-0.31 0.27-0.87 0.37-1.26 0.1-0.39 0.23-1 0.3-1.36 0.06-0.36 0.14-0.89 0.17-1.17 0.04-0.3 0.06-1.04 0.06-1.82 0-0.79-0.02-1.52-0.06-1.83-0.03-0.27-0.11-0.8-0.17-1.16-0.07-0.36-0.2-0.98-0.3-1.36-0.1-0.39-0.27-0.96-0.37-1.26-0.11-0.31-0.32-0.85-0.47-1.2-0.15-0.36-0.39-0.87-0.53-1.13-0.14-0.27-0.42-0.75-0.61-1.07-0.19-0.31-0.51-0.8-0.71-1.08-0.21-0.28-0.46-0.61-0.56-0.74-0.1-0.13-0.34-0.41-0.54-0.62-0.19-0.21-0.51-0.56-0.72-0.76-0.2-0.21-0.54-0.53-0.76-0.72-0.21-0.2-0.53-0.47-0.71-0.61-0.18-0.14-0.51-0.38-0.74-0.55-0.23-0.17-0.65-0.45-0.95-0.63-0.29-0.17-0.7-0.41-0.92-0.53-0.22-0.12-0.65-0.33-0.97-0.48-0.32-0.14-0.85-0.36-1.19-0.48-0.33-0.13-0.91-0.31-1.27-0.41-0.36-0.11-0.92-0.24-1.23-0.31-0.32-0.06-0.89-0.16-1.27-0.21-0.5-0.06-1.04-0.09-1.92-0.11-0.67-0.01-1.43 0-1.69 0.03z"/>
			<path id="Path 2" class="s2" d="m25.77 20.79c0.07 0.04 0.22 0.17 0.35 0.29 0.13 0.11 0.32 0.3 0.42 0.41 0.11 0.12 0.2 0.23 0.2 0.24 0 0.02-0.23-0.05-0.52-0.15-0.28-0.1-0.75-0.25-1.02-0.32-0.28-0.07-0.71-0.18-0.95-0.23-0.24-0.05-0.67-0.13-0.95-0.17-0.4-0.06-0.81-0.08-1.96-0.08-1.19 0-1.55 0.01-1.99 0.08-0.29 0.05-0.81 0.15-1.15 0.22-0.34 0.08-0.96 0.25-1.36 0.39-0.41 0.13-1 0.36-1.32 0.5-0.32 0.15-0.8 0.39-1.08 0.55-0.28 0.15-0.59 0.33-0.69 0.4-0.09 0.06-0.16 0.12-0.16 0.13 0.01 0 0.24-0.02 0.52-0.06 0.28-0.03 0.8-0.07 1.16-0.09 0.52-0.02 0.62-0.01 0.53 0.03-0.07 0.03-0.37 0.17-0.67 0.32-0.31 0.14-0.79 0.4-1.09 0.58-0.29 0.17-0.76 0.48-1.04 0.67-0.28 0.2-0.69 0.52-0.92 0.71-0.23 0.19-0.6 0.53-0.82 0.75-0.23 0.22-0.57 0.59-0.77 0.82-0.2 0.23-0.49 0.6-0.66 0.83-0.16 0.23-0.42 0.61-0.56 0.85-0.15 0.25-0.37 0.65-0.49 0.9-0.12 0.26-0.29 0.65-0.38 0.88-0.09 0.23-0.23 0.64-0.31 0.9-0.08 0.27-0.2 0.74-0.26 1.04-0.06 0.31-0.15 0.82-0.18 1.13-0.04 0.32-0.07 0.96-0.07 1.43v0.86c0.28-0.72 0.45-1.13 0.56-1.39 0.11-0.25 0.33-0.68 0.48-0.94 0.15-0.27 0.4-0.7 0.57-0.95 0.17-0.25 0.5-0.71 0.75-1.02 0.24-0.3 0.69-0.79 0.99-1.09 0.3-0.3 0.69-0.65 0.85-0.79 0.17-0.13 0.46-0.36 0.65-0.5 0.19-0.14 0.5-0.36 0.69-0.48 0.19-0.12 0.34-0.21 0.32-0.19-0.01 0.01-0.22 0.24-0.46 0.5-0.25 0.26-0.58 0.64-0.75 0.85-0.16 0.2-0.43 0.56-0.6 0.8-0.17 0.25-0.41 0.63-0.54 0.86-0.13 0.23-0.34 0.6-0.45 0.83-0.12 0.23-0.3 0.63-0.41 0.9-0.11 0.27-0.27 0.71-0.36 0.99-0.09 0.28-0.21 0.75-0.28 1.04-0.06 0.29-0.15 0.73-0.18 0.97-0.04 0.24-0.1 0.78-0.13 1.2-0.03 0.42-0.04 1.01-0.02 1.32 0.02 0.3 0.05 0.74 0.08 0.97 0.02 0.23 0.07 0.6 0.11 0.83 0.04 0.23 0.12 0.63 0.19 0.9 0.06 0.27 0.2 0.72 0.29 1.02 0.1 0.29 0.27 0.76 0.39 1.03 0.12 0.28 0.33 0.73 0.48 1 0.14 0.26 0.38 0.68 0.53 0.92 0.16 0.24 0.4 0.6 0.54 0.79 0.14 0.19 0.43 0.55 0.65 0.8 0.22 0.26 0.64 0.69 0.93 0.97 0.29 0.27 0.57 0.52 0.62 0.55 0.09 0.05 0.09 0.05 0-0.09-0.05-0.07-0.19-0.29-0.3-0.48-0.12-0.19-0.3-0.54-0.41-0.78-0.1-0.25-0.24-0.63-0.31-0.86-0.06-0.23-0.15-0.6-0.19-0.83q-0.08-0.42-0.08-1.18c0-0.42 0.02-0.91 0.06-1.11 0.03-0.19 0.06-0.33 0.07-0.32 0.01 0.01 0.06 0.19 0.11 0.39 0.05 0.21 0.15 0.53 0.22 0.72 0.07 0.19 0.22 0.53 0.33 0.76 0.11 0.23 0.3 0.56 0.42 0.74 0.12 0.18 0.36 0.5 0.54 0.72 0.19 0.21 0.47 0.5 0.63 0.64 0.16 0.15 0.37 0.32 0.47 0.4 0.09 0.07 0.18 0.12 0.19 0.11 0.01-0.01-0.04-0.23-0.12-0.48-0.07-0.26-0.2-0.71-0.27-1-0.07-0.29-0.17-0.8-0.22-1.13-0.06-0.33-0.12-0.84-0.15-1.13-0.02-0.29-0.05-0.85-0.05-1.25 0-0.39 0.03-0.95 0.05-1.24 0.03-0.3 0.09-0.79 0.14-1.11 0.05-0.32 0.11-0.61 0.14-0.65q0.04-0.08 0.04 0.04c0 0.05 0.05 0.31 0.12 0.57 0.06 0.26 0.15 0.6 0.2 0.75 0.05 0.16 0.16 0.47 0.26 0.7 0.09 0.23 0.28 0.61 0.4 0.85 0.13 0.24 0.36 0.62 0.5 0.83 0.14 0.22 0.38 0.55 0.53 0.74 0.15 0.2 0.41 0.51 0.58 0.69 0.16 0.19 0.48 0.5 0.69 0.69 0.22 0.19 0.52 0.45 0.67 0.58 0.15 0.13 0.43 0.39 0.63 0.58 0.19 0.19 0.45 0.49 0.58 0.67 0.13 0.18 0.32 0.48 0.42 0.67 0.11 0.19 0.24 0.51 0.31 0.7 0.06 0.2 0.14 0.55 0.16 0.79q0.05 0.43 0 0.8c-0.02 0.2-0.07 0.48-0.11 0.62-0.04 0.14-0.06 0.26-0.06 0.26 0.01 0.01 0.2-0.04 0.43-0.1 0.22-0.06 0.6-0.18 0.83-0.26 0.23-0.08 0.67-0.28 0.99-0.44 0.32-0.17 0.73-0.42 0.92-0.56 0.19-0.14 0.45-0.37 0.58-0.49 0.12-0.13 0.29-0.34 0.38-0.47l0.16-0.23c-0.04 0.98-0.09 1.28-0.17 1.57-0.06 0.23-0.14 0.51-0.18 0.63-0.04 0.11-0.08 0.21-0.07 0.22 0 0 0.13-0.08 0.28-0.18 0.16-0.11 0.51-0.42 0.78-0.69 0.29-0.3 0.56-0.62 0.67-0.81 0.11-0.18 0.24-0.46 0.31-0.62 0.07-0.17 0.15-0.45 0.18-0.62 0.03-0.2 0.04-0.51 0.03-0.77-0.02-0.26-0.07-0.56-0.13-0.74-0.06-0.16-0.17-0.43-0.25-0.6-0.09-0.16-0.26-0.43-0.38-0.59-0.12-0.17-0.39-0.45-0.59-0.64-0.21-0.19-0.61-0.5-0.89-0.69-0.29-0.19-0.54-0.34-0.56-0.34q-0.03 0-0.08-0.05c-0.03-0.04 0.16 0.01 0.41 0.1 0.26 0.09 0.69 0.28 0.96 0.41 0.26 0.13 0.68 0.37 0.92 0.53 0.24 0.16 0.61 0.46 0.83 0.66 0.21 0.2 0.51 0.53 0.66 0.73 0.15 0.2 0.35 0.54 0.45 0.74 0.09 0.2 0.21 0.51 0.26 0.69q0.09 0.32 0.08 0.83c0 0.28-0.01 0.6-0.03 0.72l-0.04 0.21q0.3-0.38 0.5-0.74c0.14-0.23 0.3-0.55 0.36-0.72 0.06-0.16 0.14-0.43 0.18-0.6 0.04-0.16 0.07-0.5 0.07-0.75 0-0.25-0.03-0.58-0.06-0.74-0.04-0.16-0.13-0.41-0.19-0.56-0.07-0.16-0.2-0.39-0.29-0.53-0.1-0.14-0.27-0.36-0.38-0.48-0.11-0.13-0.32-0.32-0.46-0.42-0.14-0.11-0.47-0.32-0.74-0.48-0.27-0.16-0.7-0.39-0.97-0.51-0.27-0.13-0.72-0.33-1.02-0.45-0.29-0.12-0.6-0.25-0.69-0.29-0.09-0.05-0.31-0.16-0.48-0.26-0.18-0.1-0.44-0.26-0.58-0.37-0.14-0.1-0.38-0.3-0.53-0.44-0.15-0.14-0.36-0.37-0.46-0.51-0.11-0.14-0.29-0.41-0.39-0.6-0.1-0.19-0.24-0.52-0.3-0.74-0.06-0.21-0.14-0.59-0.16-0.83-0.04-0.31-0.04-0.59 0-0.97 0.02-0.29 0.11-0.77 0.18-1.06 0.08-0.29 0.2-0.68 0.28-0.85 0.07-0.18 0.16-0.38 0.2-0.44 0.05-0.1 0.06-0.04 0.08 0.57 0.02 0.43 0.07 0.87 0.12 1.14 0.05 0.24 0.15 0.6 0.21 0.79 0.07 0.2 0.19 0.49 0.27 0.65 0.08 0.16 0.23 0.41 0.33 0.56l0.19 0.28c0.06-0.64 0.1-0.94 0.14-1.08 0.04-0.14 0.12-0.37 0.17-0.51 0.06-0.14 0.11-0.28 0.13-0.3 0.02-0.03 0.05 0.06 0.07 0.18 0.02 0.13 0.09 0.39 0.16 0.58 0.06 0.19 0.21 0.5 0.31 0.69 0.11 0.19 0.33 0.5 0.49 0.69 0.16 0.19 0.45 0.49 0.66 0.67 0.2 0.17 0.53 0.42 0.73 0.56 0.21 0.13 0.55 0.33 0.77 0.45 0.21 0.11 0.6 0.3 0.85 0.4 0.26 0.11 0.7 0.32 0.99 0.46 0.3 0.14 0.72 0.37 0.95 0.51 0.23 0.14 0.54 0.35 0.69 0.46 0.16 0.12 0.4 0.32 0.55 0.47q0.27 0.25 0.44 0.6c0.16 0.32 0.17 0.36 0.17 0.81v0.47q0.41-0.24 0.66-0.45c0.17-0.14 0.42-0.4 0.56-0.56 0.14-0.17 0.34-0.47 0.45-0.67 0.1-0.2 0.23-0.5 0.27-0.66 0.05-0.19 0.08-0.47 0.08-0.74 0-0.27-0.03-0.57-0.08-0.77-0.05-0.17-0.11-0.38-0.15-0.46-0.07-0.13-0.06-0.15 0.13-0.51 0.11-0.2 0.23-0.49 0.28-0.64 0.04-0.15 0.08-0.28 0.07-0.29-0.01-0.01-0.09 0.02-0.19 0.05-0.11 0.04-0.43 0.15-0.72 0.26-0.29 0.11-0.78 0.27-1.09 0.37-0.3 0.1-0.72 0.22-0.92 0.28-0.2 0.05-0.51 0.09-0.69 0.09-0.24 0-0.38-0.03-0.56-0.11-0.12-0.06-0.29-0.18-0.37-0.26-0.09-0.09-0.2-0.27-0.27-0.41-0.06-0.14-0.13-0.33-0.15-0.41l-0.04-0.16c0.43 0.2 0.64 0.27 0.74 0.3 0.11 0.02 0.4 0.03 0.67 0.02 0.27-0.02 0.78-0.09 1.13-0.15 0.36-0.06 0.97-0.2 1.37-0.29 0.39-0.1 0.83-0.24 0.97-0.31 0.13-0.07 0.35-0.19 0.48-0.27 0.13-0.08 0.26-0.17 0.3-0.19 0.05-0.04 0.06-0.02 0.03 0.14-0.02 0.1-0.04 0.23-0.05 0.29q-0.02 0.09 0.02 0.1c0.03 0 0.12-0.08 0.21-0.17 0.09-0.1 0.29-0.36 0.44-0.59 0.24-0.35 0.27-0.42 0.2-0.43-0.05-0.01-0.19 0.03-0.32 0.08-0.13 0.05-0.23 0.09-0.23 0.08q-0.01-0.02-0.08-0.13c-0.05-0.07-0.18-0.19-0.3-0.27-0.12-0.08-0.36-0.2-0.54-0.27-0.17-0.07-0.37-0.18-0.45-0.26-0.07-0.08-0.16-0.21-0.18-0.3-0.02-0.09-0.04-0.24-0.04-0.34 0-0.14 0.01-0.16 0.08-0.14 0.04 0.01 0.2 0.05 0.36 0.09 0.15 0.04 0.45 0.06 0.67 0.06 0.21 0.01 0.62-0.01 0.91-0.03 0.43-0.03 0.51-0.04 0.49-0.1-0.01-0.04-0.28-0.38-0.58-0.76-0.3-0.39-0.93-1.18-1.39-1.76-0.46-0.58-0.88-1.17-0.94-1.29-0.06-0.13-0.13-0.4-0.16-0.6-0.03-0.21-0.11-0.53-0.19-0.72-0.07-0.19-0.21-0.47-0.3-0.62-0.09-0.15-0.26-0.4-0.38-0.56-0.11-0.15-0.46-0.52-0.76-0.83-0.31-0.3-0.81-0.74-1.11-0.97-0.31-0.23-0.74-0.54-0.95-0.68-0.22-0.14-0.49-0.31-0.61-0.37-0.12-0.07-0.22-0.13-0.21-0.15 0.01-0.01 0.25 0.04 0.54 0.11 0.29 0.08 0.74 0.21 0.99 0.29 0.26 0.08 0.66 0.25 0.89 0.36l0.43 0.21q-0.01-0.64-0.07-0.99c-0.04-0.24-0.15-0.66-0.23-0.92-0.09-0.27-0.26-0.67-0.38-0.9-0.12-0.22-0.35-0.58-0.5-0.78-0.16-0.21-0.47-0.56-0.7-0.77-0.22-0.22-0.55-0.5-0.73-0.64-0.18-0.13-0.55-0.36-0.83-0.51-0.28-0.15-0.71-0.35-0.95-0.44-0.24-0.09-0.64-0.21-0.9-0.28-0.25-0.06-0.58-0.12-0.74-0.14-0.27-0.03-0.27-0.03-0.16 0.06z"/>
			<path id="Path 3" class="s1" d="m28.94 30.47c-0.18 0.04-0.44 0.11-0.58 0.16-0.14 0.05-0.29 0.12-0.32 0.14q-0.09 0.05 0.12 0.08c0.17 0.03 0.2 0.06 0.2 0.14 0 0.06 0.06 0.17 0.13 0.25 0.07 0.08 0.2 0.19 0.28 0.25 0.09 0.05 0.27 0.13 0.4 0.16 0.12 0.03 0.41 0.05 0.63 0.04l0.4-0.02c0.35 0.33 0.56 0.52 0.7 0.64 0.14 0.12 0.43 0.32 0.64 0.45 0.22 0.13 0.51 0.27 0.65 0.32 0.14 0.06 0.26 0.09 0.26 0.08 0.01 0-0.12-0.11-0.27-0.23-0.16-0.13-0.41-0.37-0.57-0.55-0.15-0.17-0.37-0.46-0.48-0.64-0.11-0.18-0.3-0.48-0.41-0.68-0.11-0.19-0.24-0.41-0.29-0.47-0.06-0.06-0.17-0.13-0.27-0.15-0.09-0.02-0.33-0.03-0.53-0.03-0.2 0-0.52 0.03-0.69 0.06zm-5.98-5.47c-0.17 0.02-0.42 0.08-0.56 0.13-0.14 0.05-0.38 0.19-0.53 0.3-0.15 0.11-0.35 0.31-0.45 0.45-0.09 0.14-0.22 0.39-0.29 0.55-0.07 0.17-0.15 0.45-0.18 0.63-0.04 0.17-0.08 0.55-0.09 0.83-0.02 0.28-0.06 0.74-0.1 1.04-0.04 0.29-0.12 0.66-0.17 0.83-0.05 0.16-0.14 0.39-0.21 0.51-0.06 0.11-0.18 0.27-0.26 0.35q-0.14 0.15-0.07 0.15c0.03 0 0.25-0.03 0.48-0.07 0.23-0.04 0.58-0.13 0.79-0.19 0.2-0.06 0.54-0.21 0.76-0.32 0.21-0.11 0.51-0.29 0.65-0.4 0.13-0.11 0.32-0.29 0.42-0.4 0.09-0.12 0.23-0.33 0.32-0.48l0.16-0.28c-0.83 0.04-1.21 0.09-1.39 0.13-0.18 0.04-0.34 0.07-0.37 0.06-0.02-0.01 0.06-0.11 0.19-0.23 0.12-0.12 0.4-0.34 0.62-0.48 0.21-0.15 0.55-0.33 0.74-0.42 0.19-0.08 0.48-0.18 0.66-0.23 0.17-0.04 0.31-0.1 0.31-0.12 0-0.01-0.12-0.04-0.27-0.06-0.14-0.02-0.42-0.04-0.62-0.04-0.19 0-0.34-0.01-0.32-0.03 0.02-0.02 0.2-0.08 0.41-0.15 0.21-0.07 0.53-0.14 0.72-0.17 0.19-0.03 0.58-0.04 0.93-0.03 0.33 0.02 0.71 0.06 0.84 0.1 0.14 0.04 0.25 0.06 0.25 0.04 0-0.02-0.15-0.21-0.32-0.43-0.18-0.21-0.47-0.51-0.64-0.66-0.17-0.16-0.43-0.35-0.57-0.44-0.14-0.09-0.35-0.21-0.48-0.26-0.13-0.06-0.34-0.13-0.46-0.15-0.13-0.03-0.32-0.06-0.42-0.07-0.1-0.01-0.32-0.01-0.48 0.01z"/>
		</g>
		<path id="CARLTON" fill-rule="evenodd" class="s1" d="m53.06 30.56v2.72q-0.93 0.48-1.94 0.73-1.01 0.24-2.11 0.24-3.28 0-5.2-1.82-1.91-1.84-1.91-4.98 0-3.14 1.91-4.97 1.92-1.84 5.2-1.84 1.1 0 2.11 0.25 1.01 0.24 1.94 0.73v2.71q-0.94-0.64-1.86-0.94-0.91-0.3-1.92-0.3-1.81 0-2.85 1.16-1.04 1.16-1.04 3.2 0 2.03 1.04 3.19 1.04 1.16 2.85 1.16 1.01 0 1.92-0.3 0.92-0.29 1.86-0.94zm11.38 3.44l-0.82-2.39h-5.3l-0.83 2.39h-3.4l4.86-13.12h4.03l4.86 13.12zm-3.47-10.05l-1.8 5.22h3.59zm13.03 5.08h-0.96v4.97h-3.38v-13.12h5.16q2.6 0 3.8 0.87 1.21 0.87 1.21 2.75 0 1.3-0.63 2.14-0.62 0.83-1.89 1.23 0.7 0.15 1.24 0.72 0.55 0.55 1.12 1.68l1.83 3.73h-3.6l-1.6-3.26q-0.48-0.98-0.98-1.34-0.5-0.37-1.32-0.37zm-0.96-2.33h1.42q1.07 0 1.52-0.4 0.47-0.39 0.47-1.3 0-0.9-0.47-1.28-0.45-0.39-1.52-0.39h-1.42zm10.62 7.3v-13.12h3.38v10.57h5.94v2.55zm6.44-10.56v-2.56h12.09v2.56h-4.35v10.56h-3.38v-10.56zm20.56-2.79q3.16 0 4.95 1.81 1.8 1.81 1.8 5 0 3.18-1.8 4.99-1.79 1.81-4.95 1.81-3.16 0-4.96-1.81-1.79-1.81-1.79-4.99 0-3.19 1.79-5 1.8-1.81 4.96-1.81zm0 2.45q-1.55 0-2.4 1.14-0.86 1.14-0.86 3.22 0 2.06 0.86 3.2 0.85 1.15 2.4 1.15 1.55 0 2.4-1.15 0.86-1.14 0.86-3.2 0-2.08-0.86-3.22-0.85-1.14-2.4-1.14zm9 10.9v-13.12h3.78l4.77 9v-9h3.21v13.12h-3.78l-4.77-9v9z"/>
		<path id="INCHEON" fill-rule="evenodd" class="s1" d="m43.65 50v-13.12h3.39v13.12zm7 0v-13.12h3.78l4.77 9v-9h3.21v13.12h-3.78l-4.78-9v9zm25.41-3.44v2.72q-0.93 0.48-1.94 0.73-1.01 0.24-2.11 0.24-3.28 0-5.2-1.82-1.91-1.84-1.91-4.98 0-3.14 1.91-4.97 1.92-1.84 5.2-1.84 1.1 0 2.11 0.25 1.01 0.24 1.94 0.73v2.71q-0.94-0.64-1.85-0.94-0.92-0.3-1.93-0.3-1.81 0-2.85 1.16-1.03 1.16-1.03 3.2 0 2.03 1.03 3.19 1.04 1.16 2.85 1.16 1.01 0 1.93-0.3 0.91-0.29 1.85-0.94zm2.59 3.44v-13.12h3.39v5h4.99v-5h3.38v13.12h-3.38v-5.56h-4.99v5.56zm15 0v-13.12h9.13v2.56h-5.75v2.44h5.41v2.56h-5.41v3h5.94v2.56zm18-13.36q3.16 0 4.95 1.81 1.8 1.81 1.8 5 0 3.18-1.8 4.99-1.79 1.81-4.95 1.81-3.16 0-4.96-1.81-1.79-1.81-1.79-4.99 0-3.19 1.79-5 1.8-1.81 4.96-1.81zm0 2.45q-1.55 0-2.4 1.15-0.85 1.14-0.85 3.21 0 2.07 0.85 3.21 0.85 1.14 2.4 1.14 1.55 0 2.41-1.14 0.85-1.14 0.85-3.21 0-2.07-0.85-3.21-0.86-1.15-2.41-1.15zm10 10.91v-13.12h3.78l4.77 9v-9h3.21v13.12h-3.78l-4.77-9v9z"/>
	</g>
</svg>