<?xml version="1.0" encoding="UTF-8"?>
<svg id="_레이어_1" data-name="레이어 1" xmlns="http://www.w3.org/2000/svg" viewBox="0 0 90 40">
  <defs>
    <style>
      .cls-1 {
        fill: #666;
        stroke-width: 0px;
      }
    </style>
  </defs>
  <g>
    <polygon class="cls-1" points="8.36 10.98 6.15 10.98 6.15 16.36 8.36 18.45 8.36 10.98"/>
    <polygon class="cls-1" points="18 20.85 16.44 19.29 12.58 23.15 12.58 15.46 15.84 12.21 14.27 10.65 12.58 12.34 12.58 6.41 10.37 6.41 10.37 14.55 10.37 14.64 10.37 21.69 3.74 15.06 2.18 16.63 6.15 20.6 6.15 29.57 8.36 29.57 8.36 22.8 10.37 24.82 10.37 29.57 12.58 29.57 12.58 26.27 18 20.85"/>
    <polygon class="cls-1" points="13.89 28.03 15.45 29.59 16.96 28.09 15.4 26.53 13.89 28.03"/>
  </g>
  <g>
    <g>
      <path class="cls-1" d="M21.96,19.35v-6.98c0-.1.05-.16.15-.16h1.54c.1,0,.16.06.16.16v2.82l2.37-2.9c.05-.06.11-.09.19-.09h1.76c.09,0,.13.04.13.09,0,.03-.02.06-.04.1l-2.21,2.56,2.49,4.37s.03.06.03.09c0,.06-.04.1-.13.1h-1.78c-.08,0-.14-.04-.18-.11l-1.69-3.01-.93,1.08v1.88c0,.1-.06.16-.16.16h-1.54c-.1,0-.15-.06-.15-.16Z"/>
      <g>
        <path class="cls-1" d="M34.33,19.34v-5.77h-2.21c-.07,0-.12-.05-.12-.13v-.99c0-.08.04-.13.12-.13h5.71c.08,0,.13.04.13.13v.99c0,.07-.04.13-.13.13h-2.19v5.77c0,.08-.05.13-.13.13h-1.06c-.07,0-.13-.04-.13-.13Z"/>
        <path class="cls-1" d="M38.81,19.34v-6.88c0-.08.04-.13.13-.13h2.15c1.97,0,2.82.88,2.82,2.48,0,.88-.33,1.61-1.04,2.06l1.34,2.43s.02.04.02.06c0,.05-.04.09-.11.09h-1.19c-.07,0-.12-.03-.14-.09l-1.15-2.1c-.18.02-.35.04-.55.04h-.97v2.03c0,.08-.05.13-.13.13h-1.06c-.08,0-.13-.04-.13-.13ZM42.56,14.82c0-.89-.48-1.27-1.52-1.27h-.92v2.55h.92c1.03,0,1.52-.38,1.52-1.27Z"/>
        <path class="cls-1" d="M45.17,19.34v-6.88c0-.08.04-.13.13-.13h4.5c.08,0,.13.04.13.13v.99c0,.07-.04.13-.13.13h-3.32v1.61h3c.08,0,.13.05.13.13v.96c0,.07-.05.13-.13.13h-3v1.82h3.43c.08,0,.13.05.13.13v.98c0,.08-.04.13-.13.13h-4.62c-.08,0-.13-.04-.13-.13Z"/>
        <path class="cls-1" d="M50.96,19.34v-6.88c0-.08.04-.13.13-.13h4.5c.08,0,.13.04.13.13v.99c0,.07-.04.13-.13.13h-3.32v1.61h3c.08,0,.13.05.13.13v.96c0,.07-.05.13-.13.13h-3v1.82h3.43c.08,0,.13.05.13.13v.98c0,.08-.04.13-.13.13h-4.62c-.08,0-.13-.04-.13-.13Z"/>
      </g>
      <rect class="cls-1" x="29.34" y="15.81" width="1.94" height=".93"/>
    </g>
    <g>
      <path class="cls-1" d="M21.96,29.3v-6.71c0-.09.05-.16.15-.16h2.35c1.94,0,2.95.88,2.95,2.57s-1.01,2.58-2.95,2.58h-.73v1.72c0,.09-.06.15-.15.15h-1.46c-.09,0-.15-.06-.15-.15ZM25.59,24.98c0-.77-.45-1.06-1.17-1.06h-.69v2.16h.69c.72,0,1.17-.3,1.17-1.1Z"/>
      <path class="cls-1" d="M29.78,29.3v-2.42l-2.49-4.27s-.03-.06-.03-.08c0-.06.05-.1.13-.1h1.71c.09,0,.15.04.19.1l1.42,2.74,1.4-2.74c.03-.08.09-.1.17-.1h1.68c.09,0,.14.04.14.1,0,.02,0,.05-.03.08l-2.49,4.24v2.45c0,.09-.07.15-.16.15h-1.48c-.1,0-.16-.06-.16-.15Z"/>
      <path class="cls-1" d="M34.68,29.3v-6.71c0-.09.05-.16.15-.16h4.62c.09,0,.16.06.16.16v1.23c0,.09-.07.16-.16.16h-3v1.15h2.65c.1,0,.16.05.16.15v1.19c0,.09-.06.15-.16.15h-2.65v1.3h3.12c.09,0,.16.06.16.16v1.23c0,.09-.07.15-.16.15h-4.74c-.1,0-.15-.06-.15-.15Z"/>
      <path class="cls-1" d="M40.32,25.94c0-2.17,1.54-3.65,3.63-3.65s3.62,1.48,3.62,3.65-1.54,3.65-3.62,3.65-3.63-1.48-3.63-3.65ZM43.96,27.86c1.06,0,1.78-.79,1.78-1.92s-.72-1.91-1.78-1.91-1.79.78-1.79,1.91.72,1.92,1.79,1.92Z"/>
      <path class="cls-1" d="M48.54,29.3v-6.71c0-.09.05-.16.15-.16h1.55c.09,0,.14.04.18.1l2.51,4.18v-4.12c0-.09.05-.16.16-.16h1.41c.1,0,.15.06.15.16v6.71c0,.09-.05.15-.15.15h-1.55c-.09,0-.15-.03-.18-.1l-2.52-4.19v4.14c0,.09-.05.15-.15.15h-1.42c-.09,0-.15-.06-.15-.15Z"/>
      <path class="cls-1" d="M55.58,25.94c0-2.17,1.54-3.65,3.58-3.65,1.53,0,2.65.69,3.12,1.91.01.03.02.04.02.07,0,.06-.04.11-.11.12l-1.47.41s-.03,0-.05,0c-.06,0-.1-.03-.14-.09-.28-.45-.78-.7-1.34-.7-1.08,0-1.77.72-1.77,1.93s.72,1.92,1.77,1.92c.81,0,1.42-.37,1.51-1.05h-1.35c-.1,0-.15-.06-.15-.16v-1.02c0-.09.05-.16.15-.16h3c.08,0,.15.06.15.16v.82c0,1.76-1.18,3.12-3.37,3.12s-3.56-1.48-3.56-3.65Z"/>
      <path class="cls-1" d="M64.87,29.3v-5.2h-2.02c-.1,0-.15-.06-.15-.15v-1.37c0-.09.05-.16.15-.16h5.82c.1,0,.16.06.16.16v1.37c0,.09-.06.15-.16.15h-2.01v5.2c0,.09-.06.15-.16.15h-1.49c-.09,0-.15-.06-.15-.15Z"/>
      <path class="cls-1" d="M67.97,29.28l2.76-6.74c.03-.08.1-.11.17-.11h1.21c.09,0,.14.04.17.11l2.76,6.74s.02.04.02.06c0,.07-.05.11-.13.11h-1.6c-.09,0-.15-.03-.17-.12l-.39-1.09h-2.55l-.38,1.09c-.03.09-.09.12-.17.12h-1.57c-.11,0-.16-.08-.12-.17ZM72.25,26.79l-.77-2.17-.76,2.17h1.53Z"/>
      <path class="cls-1" d="M75.66,29.3v-6.71c0-.09.05-.16.15-.16h4.63c.09,0,.16.06.16.16v1.23c0,.09-.07.16-.16.16h-3v1.15h2.65c.09,0,.15.05.15.15v1.19c0,.09-.06.15-.15.15h-2.65v1.3h3.11c.09,0,.16.06.16.16v1.23c0,.09-.07.15-.16.15h-4.74c-.09,0-.15-.06-.15-.15Z"/>
      <path class="cls-1" d="M81.51,29.3v-6.71c0-.09.05-.16.15-.16h1.48c.1,0,.16.06.16.16v2.72l2.28-2.79c.05-.06.1-.09.18-.09h1.69c.09,0,.13.04.13.09,0,.03-.02.06-.04.09l-2.13,2.46,2.4,4.2s.03.06.03.09c0,.06-.04.09-.13.09h-1.71c-.08,0-.14-.03-.17-.1l-1.62-2.9-.9,1.04v1.81c0,.09-.06.15-.16.15h-1.48c-.1,0-.15-.06-.15-.15Z"/>
    </g>
  </g>
</svg>